<?xml version="1.0" encoding="UTF-8"?>
<svg id="Layer_1" data-name="Layer 1" xmlns="http://www.w3.org/2000/svg" viewBox="0 0 45.56 27.16">
  <defs>
    <style>
      .cls-1 {
        fill: #231f20;
      }

      .cls-2 {
        opacity: .5;
      }
    </style>
  </defs>
  <g class="cls-2">
    <g>
      <path class="cls-1" d="M11.29,25.92c-.28,0-.56-.1-.73-.28L1.86,16.28c-1.31-1.41-1.31-3.24,0-4.66L10.56,2.26c.26-.28.8-.36,1.21-.18.4.19.51.57.25.85L3.62,11.96c-1.12,1.21-1.12,2.78,0,3.99l8.39,9.03c.26.28.15.66-.25.85-.15.07-.31.1-.48.1Z"/>
      <path class="cls-1" d="M11.29,26.79c-.54,0-1.04-.2-1.37-.56L1.22,16.87c-1.62-1.75-1.62-4.1,0-5.84L9.92,1.67c.52-.56,1.47-.72,2.21-.37.47.22.78.6.87,1.05.08.42-.04.85-.35,1.18L4.26,12.55c-.81.88-.81,1.92,0,2.8l8.39,9.03c.31.33.43.76.35,1.18-.09.45-.41.84-.87,1.05-.26.12-.55.18-.84.18ZM2.18,12.6c-.59.87-.59,1.83,0,2.7-.36-.88-.36-1.82,0-2.7Z"/>
    </g>
    <g>
      <g>
        <g>
          <path class="cls-1" d="M44.08,14.1c-.09,0-.18-.03-.25-.1l-11.66-11.66c-.51-.51-1.32-.51-1.83,0l-11.66,11.66c-.14.14-.36.14-.49,0-.14-.14-.14-.36,0-.49L30.09,1.59c.64-.64,1.68-.64,2.32,0l11.91,11.91c.14.14.14.36,0,.49-.07.07-.16.1-.25.1Z"/>
          <path class="cls-1" d="M18.43,14.47c-.19,0-.38-.08-.51-.21-.14-.14-.21-.32-.21-.51s.08-.38.21-.51L29.83,1.33c.79-.79,2.07-.79,2.85,0l11.91,11.91c.28.28.28.74,0,1.02-.28.27-.75.27-1.02,0L31.9,2.6c-.36-.36-.94-.36-1.3,0l-11.66,11.66c-.14.14-.32.21-.51.21ZM31.25,1.58c.29,0,.58.07.84.22-.48-.42-1.19-.42-1.67,0,.26-.15.55-.22.83-.22Z"/>
        </g>
        <g>
          <path class="cls-1" d="M44.08,14.86c-.3,0-.58-.12-.79-.33L31.63,2.87c-.21-.21-.54-.21-.75,0l-11.66,11.66c-.43.43-1.14.43-1.57,0-.43-.43-.43-1.14,0-1.57L29.55,1.05c.45-.45,1.06-.7,1.7-.7h0c.64,0,1.25.25,1.7.7l11.91,11.91c.43.43.43,1.14,0,1.57-.21.21-.49.33-.79.33Z"/>
          <path class="cls-1" d="M44.08,15.24c-.4,0-.77-.15-1.05-.44L31.36,3.14c-.06-.06-.16-.06-.22,0l-11.66,11.66c-.58.58-1.52.58-2.1,0-.28-.28-.43-.65-.43-1.05s.15-.77.43-1.05L29.28.79c1.05-1.05,2.88-1.05,3.93,0l11.91,11.91c.58.58.58,1.52,0,2.1-.28.28-.66.44-1.05.44ZM31.25,2.34c.23,0,.46.09.64.26l11.66,11.66c.28.28.76.28,1.04,0,.29-.29.29-.75,0-1.04L32.69,1.32c-.76-.77-2.11-.76-2.87,0l-11.91,11.91c-.14.14-.22.32-.22.52s.08.38.22.52c.29.29.75.29,1.04,0L30.61,2.61c.18-.18.41-.26.64-.26Z"/>
        </g>
      </g>
      <g>
        <g>
          <path class="cls-1" d="M39.34,26.03h-3.6c-.91,0-1.64-.74-1.64-1.64v-6.29c0-.71-.58-1.29-1.29-1.29h-3.1c-.71,0-1.29.58-1.29,1.29v6.29c0,.91-.74,1.64-1.64,1.64h-3.6c-.91,0-1.64-.74-1.64-1.64v-13.78c0-.19.16-.35.35-.35s.35.16.35.35v13.43c0,.71.58,1.29,1.29,1.29h2.9c.71,0,1.29-.58,1.29-1.29v-6.29c0-.91.74-1.64,1.64-1.64h3.8c.91,0,1.64.74,1.64,1.64v6.29c0,.71.58,1.29,1.29,1.29h2.9c.71,0,1.29-.58,1.29-1.29v-13.43c0-.19.16-.35.35-.35s.35.16.35.35v13.78c0,.91-.74,1.64-1.64,1.64Z"/>
          <path class="cls-1" d="M39.34,26.4h-3.6c-1.11,0-2.02-.9-2.02-2.02v-6.29c0-.51-.41-.92-.92-.92h-3.1c-.51,0-.92.41-.92.92v6.29c0,1.11-.91,2.02-2.02,2.02h-3.6c-1.11,0-2.02-.9-2.02-2.02v-13.78c0-.4.32-.72.72-.72s.72.32.72.72v13.43c0,.51.41.92.92.92h2.9c.51,0,.92-.41.92-.92v-6.29c0-1.11.9-2.02,2.02-2.02h3.8c1.11,0,2.02.9,2.02,2.02v6.29c0,.51.41.92.92.92h2.9c.51,0,.92-.41.92-.92v-13.43c0-.4.32-.72.72-.72s.72.32.72.72v13.78c0,1.11-.91,2.02-2.02,2.02ZM21.9,24.47c.04.63.55,1.14,1.18,1.18-.58-.15-1.03-.61-1.18-1.18ZM34.47,24.47c.04.63.55,1.14,1.18,1.18-.58-.15-1.03-.61-1.18-1.18ZM40.6,24.46c-.15.58-.61,1.03-1.18,1.19.64-.04,1.14-.55,1.18-1.19ZM28.03,24.47c-.15.57-.61,1.03-1.18,1.18.63-.04,1.14-.55,1.18-1.18ZM29.27,16.48c-.63.04-1.14.55-1.18,1.18.15-.57.61-1.03,1.18-1.18ZM33.23,16.48c.58.15,1.03.61,1.18,1.18-.04-.63-.55-1.14-1.18-1.18Z"/>
        </g>
        <g>
          <path class="cls-1" d="M39.34,26.79h-3.6c-1.33,0-2.41-1.08-2.41-2.41v-6.29c0-.29-.24-.53-.53-.53h-3.1c-.29,0-.53.24-.53.53v6.29c0,1.33-1.08,2.41-2.41,2.41h-3.6c-1.33,0-2.41-1.08-2.41-2.41v-13.78c0-.61.5-1.11,1.11-1.11s1.11.5,1.11,1.11v13.43c0,.29.24.53.53.53h2.9c.29,0,.53-.24.53-.53v-6.29c0-1.33,1.08-2.41,2.41-2.41h3.8c1.33,0,2.41,1.08,2.41,2.41v6.29c0,.29.24.53.53.53h2.9c.29,0,.53-.24.53-.53v-13.43c0-.61.5-1.11,1.11-1.11s1.11.5,1.11,1.11v13.78c0,1.33-1.08,2.41-2.41,2.41Z"/>
          <path class="cls-1" d="M39.34,27.16h-3.6c-1.53,0-2.78-1.25-2.78-2.78v-6.29c0-.09-.07-.15-.15-.15h-3.1c-.08,0-.15.07-.15.15v6.29c0,1.53-1.25,2.78-2.78,2.78h-3.6c-1.53,0-2.78-1.25-2.78-2.78v-13.78c0-.82.67-1.49,1.49-1.49s1.49.67,1.49,1.49v13.43c0,.09.07.15.16.15h2.9c.08,0,.15-.07.15-.15v-6.29c0-1.53,1.25-2.78,2.78-2.78h3.8c1.53,0,2.78,1.25,2.78,2.78v6.29c0,.09.07.15.15.15h2.9c.09,0,.16-.07.16-.15v-13.43c0-.82.67-1.49,1.49-1.49s1.49.67,1.49,1.49v13.78c0,1.53-1.25,2.78-2.78,2.78ZM29.7,17.19h3.1c.5,0,.9.41.9.9v6.29c0,1.12.91,2.03,2.03,2.03h3.6c1.12,0,2.03-.91,2.03-2.03v-13.78c0-.41-.33-.74-.74-.74s-.74.33-.74.74v13.43c0,.5-.41.9-.91.9h-2.9c-.5,0-.9-.41-.9-.9v-6.29c0-1.12-.91-2.03-2.03-2.03h-3.8c-1.12,0-2.03.91-2.03,2.03v6.29c0,.5-.41.9-.9.9h-2.9c-.5,0-.91-.41-.91-.9v-13.43c0-.41-.33-.74-.74-.74s-.74.33-.74.74v13.78c0,1.12.91,2.03,2.03,2.03h3.6c1.12,0,2.03-.91,2.03-2.03v-6.29c0-.5.41-.9.9-.9Z"/>
        </g>
      </g>
    </g>
  </g>
</svg>