<?xml version="1.0" encoding="UTF-8"?>
<svg id="Layer_1" data-name="Layer 1" xmlns="http://www.w3.org/2000/svg" viewBox="0 0 25.76 20.46">
  <defs>
    <style>
      .cls-1 {
        fill: #231f20;
      }

      .cls-2 {
        opacity: .5;
      }
    </style>
  </defs>
  <g class="cls-2">
    <path class="cls-1" d="M21.63,0H4.13C1.85,0,0,1.85,0,4.13v10.23c0,3.36,2.74,6.1,6.1,6.1h13.56c3.36,0,6.1-2.74,6.1-6.1V4.13c0-2.28-1.85-4.13-4.13-4.13ZM20.95,2.73l-6.72,7.71c-.34.39-.82.61-1.34.61s-1-.22-1.34-.61L4.81,2.73h16.13ZM19.66,17.72H6.1c-1.86,0-3.37-1.51-3.37-3.37V4.5l6.75,7.73c.86.98,2.1,1.55,3.4,1.55s2.54-.56,3.4-1.55l6.75-7.73v9.86c0,1.86-1.51,3.37-3.37,3.37Z"/>
  </g>
</svg>