<?xml version="1.0" encoding="UTF-8"?>
<svg id="Layer_1" data-name="Layer 1" xmlns="http://www.w3.org/2000/svg" viewBox="0 0 25.49 32.17">
  <defs>
    <style>
      .cls-1 {
        fill: #272525;
      }

      .cls-2 {
        fill: #fff;
      }

      .cls-3 {
        opacity: .8;
      }
    </style>
  </defs>
  <g class="cls-3">
    <g>
      <path class="cls-2" d="M20.88,31.12H4.61c-1.97,0-3.57-1.6-3.57-3.57v-11.83c0-1.97,1.6-3.57,3.57-3.57h16.26c1.97,0,3.57,1.6,3.57,3.57v11.83c0,1.97-1.6,3.57-3.57,3.57ZM5.03,30.29h15.43c1.74,0,3.15-1.41,3.15-3.15v-10.99c0-1.74-1.41-3.15-3.15-3.15H5.03c-1.74,0-3.15,1.41-3.15,3.15v10.99c0,1.74,1.41,3.15,3.15,3.15Z"/>
      <path class="cls-1" d="M20.88,32.17H4.61c-2.54,0-4.61-2.07-4.61-4.61v-11.83c0-2.54,2.07-4.61,4.61-4.61h16.26c2.54,0,4.61,2.07,4.61,4.61v11.83c0,2.54-2.07,4.61-4.61,4.61ZM5.03,14.04c-1.16,0-2.1.94-2.1,2.1v10.99c0,1.16.94,2.1,2.1,2.1h15.43c1.16,0,2.1-.94,2.1-2.1v-10.99c0-1.16-.94-2.1-2.1-2.1H5.03Z"/>
    </g>
    <g>
      <path class="cls-2" d="M20.22,13c-.23,0-.42-.19-.42-.42v-3.78c0-3.81-3.2-6.91-7.14-6.91s-7.14,3.1-7.14,6.91v3.78c0,.23-.19.42-.42.42s-.42-.19-.42-.42v-3.78c0-4.27,3.58-7.75,7.98-7.75s7.98,3.48,7.98,7.75v3.78c0,.23-.19.42-.42.42Z"/>
      <path class="cls-1" d="M20.22,14.04c-.81,0-1.47-.66-1.47-1.47v-3.78c0-3.23-2.73-5.86-6.1-5.86s-6.1,2.63-6.1,5.86v3.78c0,.81-.66,1.47-1.47,1.47s-1.47-.66-1.47-1.47v-3.78C3.63,3.95,7.68,0,12.65,0s9.03,3.95,9.03,8.79v3.78c0,.81-.66,1.47-1.47,1.47Z"/>
    </g>
    <g>
      <path class="cls-2" d="M12.74,24.82c-.23,0-.42-.19-.42-.42v-5.52c0-.23.19-.42.42-.42s.42.19.42.42v5.52c0,.23-.19.42-.42.42Z"/>
      <path class="cls-1" d="M12.74,25.86c-.81,0-1.47-.66-1.47-1.47v-5.52c0-.81.66-1.47,1.47-1.47s1.47.66,1.47,1.47v5.52c0,.81-.66,1.47-1.47,1.47Z"/>
    </g>
  </g>
</svg>