<?xml version="1.0" encoding="UTF-8"?>
<svg id="Layer_1" data-name="Layer 1" xmlns="http://www.w3.org/2000/svg" viewBox="0 0 36.99 37.34">
  <defs>
    <style>
      .cls-1 {
        fill: #fff;
      }
    </style>
  </defs>
  <g>
    <path class="cls-1" d="M35.42,36.23H9.4c-.26,0-.47-.21-.47-.47v-12.58c0-.26.21-.47.47-.47s.47.21.47.47v12.1h25.08V2.06H9.87v12.81c0,.26-.21.47-.47.47s-.47-.21-.47-.47V1.59c0-.26.21-.47.47-.47h26.02c.26,0,.47.21.47.47v34.17c0,.26-.21.47-.47.47Z"/>
    <path class="cls-1" d="M35.42,37.34H9.4c-.87,0-1.58-.71-1.58-1.59v-12.58c0-.87.71-1.59,1.58-1.59s1.58.71,1.58,1.59v10.99h22.87V3.17H10.97v11.7c0,.87-.71,1.59-1.58,1.59s-1.58-.71-1.58-1.59V1.59c0-.87.71-1.59,1.58-1.59h26.02c.87,0,1.58.71,1.58,1.59v34.17c0,.87-.71,1.59-1.58,1.59Z"/>
  </g>
  <g>
    <path class="cls-1" d="M21.8,19.5H1.58c-.26,0-.47-.21-.47-.47s.21-.47.47-.47h20.23c.26,0,.47.21.47.47s-.21.47-.47.47Z"/>
    <path class="cls-1" d="M21.8,20.61H1.58c-.87,0-1.58-.71-1.58-1.59s.71-1.59,1.58-1.59h20.23c.87,0,1.58.71,1.58,1.59s-.71,1.59-1.58,1.59Z"/>
  </g>
  <g>
    <path class="cls-1" d="M17.49,23.02c-.15,0-.29-.07-.39-.2-.15-.21-.1-.51.11-.66l4.37-3.13-4.37-3.13c-.21-.15-.26-.45-.11-.66.15-.21.45-.26.66-.11l4.91,3.52c.12.09.2.23.2.39s-.07.3-.2.39l-4.91,3.52c-.08.06-.18.09-.27.09Z"/>
    <path class="cls-1" d="M17.49,24.13c-.51,0-.99-.25-1.28-.66-.51-.71-.34-1.71.37-2.21l3.11-2.23-3.11-2.23c-.71-.51-.87-1.5-.37-2.21.51-.71,1.49-.88,2.2-.37l4.91,3.52c.41.3.66.78.66,1.29s-.25.99-.66,1.29l-4.91,3.52c-.27.19-.58.29-.92.29Z"/>
  </g>
</svg>