<?xml version="1.0" encoding="UTF-8"?>
<svg id="Layer_1" data-name="Layer 1" xmlns="http://www.w3.org/2000/svg" viewBox="0 0 19.88 20.06">
  <defs>
    <style>
      .cls-1 {
        fill: #fff;
      }
    </style>
  </defs>
  <g>
    <path class="cls-1" d="M19.03,19.47H5.05c-.14,0-.25-.11-.25-.26v-6.76c0-.14.11-.26.25-.26s.25.11.25.26v6.5h13.47V1.11H5.3v6.88c0,.14-.11.26-.25.26s-.25-.11-.25-.26V.85c0-.14.11-.26.25-.26h13.98c.14,0,.25.11.25.26v18.36c0,.14-.11.26-.25.26Z"/>
    <path class="cls-1" d="M19.03,20.06H5.05c-.47,0-.85-.38-.85-.85v-6.76c0-.47.38-.85.85-.85s.85.38.85.85v5.91h12.29V1.7H5.9v6.29c0,.47-.38.85-.85.85s-.85-.38-.85-.85V.85c0-.47.38-.85.85-.85h13.98c.47,0,.85.38.85.85v18.36c0,.47-.38.85-.85.85Z"/>
  </g>
  <g>
    <path class="cls-1" d="M11.72,10.48H.85c-.14,0-.25-.11-.25-.26s.11-.25.25-.25h10.87c.14,0,.25.11.25.25s-.11.26-.25.26Z"/>
    <path class="cls-1" d="M11.72,11.07H.85c-.47,0-.85-.38-.85-.85s.38-.85.85-.85h10.87c.47,0,.85.38.85.85s-.38.85-.85.85Z"/>
  </g>
  <g>
    <path class="cls-1" d="M9.4,12.37c-.08,0-.16-.04-.21-.11-.08-.11-.05-.27.06-.36l2.35-1.68-2.35-1.68c-.11-.08-.14-.24-.06-.36.08-.11.24-.14.35-.06l2.64,1.89c.07.05.11.13.11.21s-.04.16-.11.21l-2.64,1.89s-.1.05-.15.05Z"/>
    <path class="cls-1" d="M9.4,12.96c-.27,0-.53-.13-.69-.36-.27-.38-.18-.92.2-1.19l1.67-1.2-1.67-1.2c-.38-.27-.47-.81-.2-1.19.27-.38.8-.47,1.18-.2l2.64,1.89c.22.16.36.42.36.69s-.13.53-.36.69l-2.64,1.89c-.14.1-.31.16-.49.16Z"/>
  </g>
</svg>