<?xml version="1.0" encoding="UTF-8"?>
<svg id="Layer_1" data-name="Layer 1" xmlns="http://www.w3.org/2000/svg" viewBox="0 0 15.6 20.06">
  <defs>
    <style>
      .cls-1 {
        fill: #db3f7a;
      }
    </style>
  </defs>
  <g>
    <path class="cls-1" d="M14.35,1.94H1.26c-.1,0-.18-.21-.18-.47s.08-.47.18-.47h13.09c.1,0,.18.21.18.47s-.08.47-.18.47Z"/>
    <path class="cls-1" d="M14.35,3.02H1.26c-.61,0-1.26-.48-1.26-1.54S.65-.07,1.26-.07h13.09c.61,0,1.26.48,1.26,1.54s-.65,1.54-1.26,1.54Z"/>
  </g>
  <g>
    <path class="cls-1" d="M14.35,10.44H1.26c-.1,0-.18-.21-.18-.47s.08-.47.18-.47h13.09c.1,0,.18.21.18.47s-.08.47-.18.47Z"/>
    <path class="cls-1" d="M14.35,11.51H1.26c-.61,0-1.26-.48-1.26-1.54s.65-1.54,1.26-1.54h13.09c.61,0,1.26.48,1.26,1.54s-.65,1.54-1.26,1.54Z"/>
  </g>
  <g>
    <path class="cls-1" d="M14.35,18.93H1.26c-.1,0-.18-.21-.18-.47s.08-.47.18-.47h13.09c.1,0,.18.21.18.47s-.08.47-.18.47Z"/>
    <path class="cls-1" d="M14.35,20.01H1.26c-.61,0-1.26-.48-1.26-1.54s.65-1.54,1.26-1.54h13.09c.61,0,1.26.48,1.26,1.54s-.65,1.54-1.26,1.54Z"/>
  </g>
</svg>